<svg width="430" height="276" viewBox="0 0 430 276" fill="none" xmlns="http://www.w3.org/2000/svg">
<g clip-path="url(#clip0)">
<path d="M417.161 275.14C420.488 275.143 423.682 273.836 426.053 271.503C428.424 269.169 429.781 265.996 429.831 262.67C430.361 228.18 433.141 177.3 368.191 163.23C315.621 151.85 346.791 58.43 205.191 64.47C103.571 68.8 130.571 154.47 51.5613 161.59C-0.998722 166.33 -1.43872 232.83 0.581278 263.3C0.794402 266.51 2.21976 269.519 4.5686 271.718C6.91744 273.916 10.0141 275.139 13.2313 275.14H417.161Z" fill="#A5E3F6"/>
<path opacity="0.55" d="M368.189 163.23C315.619 151.85 346.789 58.43 205.189 64.47C181.019 65.47 164.139 71.13 151.359 79.21C155.669 78.65 160.229 78.21 165.099 78.05C306.669 72.05 275.499 165.43 328.099 176.81C392.359 190.73 390.319 240.67 389.759 275.14H417.159C420.486 275.143 423.68 273.836 426.051 271.503C428.422 269.169 429.779 265.996 429.829 262.67C430.359 228.18 433.139 177.3 368.189 163.23Z" fill="#6FD1F1"/>
<path d="M415.812 271.87H369.242L376.372 254.6L379.232 247.6L380.022 245.69L381.312 242.58L381.572 241.95L384.442 234.95L384.962 233.68L390.002 221.42C390.201 220.919 390.546 220.49 390.991 220.187C391.437 219.885 391.963 219.723 392.502 219.723C393.041 219.723 393.567 219.885 394.013 220.187C394.459 220.49 394.803 220.919 395.002 221.42L400.072 233.74L400.602 235.01L403.462 242.01L403.732 242.64L405.012 245.75L405.802 247.66L408.672 254.66L415.812 271.87Z" fill="#FFBF4D"/>
<g style="mix-blend-mode:multiply" opacity="0.29">
<path d="M372.3 264.47L369.25 271.87H415.81L412.76 264.47H372.3Z" fill="#F98D2B"/>
</g>
<path d="M418.85 267.44H365.52V274.98H418.85V267.44Z" fill="#D17A89"/>
<path d="M418.852 267.44H407.332V274.98H418.852V267.44Z" fill="#C24E61"/>
<g style="mix-blend-mode:multiply" opacity="0.29">
<path d="M414.001 267.44H407.411L402.121 254.61L399.261 247.61L398.471 245.7L397.181 242.59L396.921 241.96L394.001 235L393.481 233.74L389.211 223.36L390.011 221.36C390.21 220.859 390.554 220.43 391 220.127C391.446 219.825 391.972 219.663 392.511 219.663C393.05 219.663 393.576 219.825 394.022 220.127C394.467 220.43 394.812 220.859 395.011 221.36L400.081 233.69L400.611 234.95L403.471 241.95L403.741 242.58L405.021 245.69L405.811 247.6L408.681 254.6L414.001 267.44Z" fill="#F98D2B"/>
</g>
<path d="M403.49 241.98H381.57L384.44 235.01H400.62L403.49 241.98Z" fill="#B3223A"/>
<path d="M408.691 254.59V254.6H376.371V254.59L379.231 247.63H405.821L408.691 254.59Z" fill="#B3223A"/>
<path d="M403.491 241.98H396.901L394.031 235.01H400.621L403.491 241.98Z" fill="#A11F34"/>
<path d="M408.692 254.59V254.6H402.102V254.59L399.242 247.63H405.822L408.692 254.59Z" fill="#A11F34"/>
<path d="M355.001 77.88L105.781 48.8C100.672 48.1999 95.5332 49.6537 91.4957 52.8417C87.4582 56.0297 84.8522 60.6909 84.2509 65.8L65.6509 225.17C65.0536 230.279 66.5084 235.416 69.6959 239.453C72.8834 243.49 77.5429 246.096 82.6509 246.7L331.841 275.79C336.949 276.385 342.085 274.929 346.121 271.742C350.157 268.555 352.765 263.897 353.371 258.79L372.001 99.41C372.598 94.3012 371.143 89.1642 367.956 85.1273C364.768 81.0905 360.109 78.4838 355.001 77.88Z" fill="#F7E9EB"/>
<path d="M370.16 115.19L372 99.41C372.598 94.3012 371.143 89.1642 367.955 85.1273C364.768 81.0905 360.108 78.4838 355 77.88L105.78 48.8C100.671 48.1999 95.5324 49.6537 91.4949 52.8417C87.4574 56.0297 84.8515 60.6909 84.2502 65.8L82.4102 81.6L370.16 115.19Z" fill="#B3223A"/>
<path d="M165.906 184.453L168.122 167.272L143.282 164.068L148.405 124.354C148.553 123.208 149.089 122.279 150.012 121.566C150.973 120.825 152.026 120.529 153.171 120.676C154.284 120.82 155.195 121.37 155.903 122.326C156.616 123.25 156.898 124.285 156.75 125.43L152.704 156.799L169.199 158.926L172.314 134.774C172.462 133.629 172.981 132.697 173.872 131.981C174.8 131.235 175.837 130.936 176.982 131.084C178.128 131.232 179.038 131.782 179.714 132.734C180.427 133.658 180.709 134.692 180.561 135.838L177.446 159.99C178.591 160.138 179.504 160.672 180.184 161.591C180.901 162.482 181.185 163.5 181.037 164.646C180.89 165.791 180.354 166.72 179.43 167.433C178.544 168.117 177.527 168.385 176.382 168.237L174.153 185.517C174.005 186.663 173.47 187.592 172.546 188.304C171.626 188.984 170.61 189.252 169.498 189.109C168.352 188.961 167.421 188.442 166.704 187.551C166.024 186.631 165.758 185.599 165.906 184.453ZM287.454 200.132L289.67 182.95L264.83 179.746L269.953 140.032C270.101 138.887 270.636 137.958 271.56 137.245C272.521 136.504 273.574 136.207 274.719 136.355C275.832 136.498 276.742 137.048 277.451 138.005C278.164 138.929 278.446 139.963 278.298 141.109L274.252 172.477L290.746 174.605L293.862 150.452C294.01 149.307 294.529 148.376 295.42 147.659C296.348 146.914 297.384 146.615 298.53 146.763C299.675 146.91 300.586 147.46 301.262 148.412C301.974 149.336 302.257 150.371 302.109 151.516L298.994 175.669C300.139 175.816 301.052 176.35 301.732 177.27C302.448 178.161 302.733 179.179 302.585 180.324C302.437 181.47 301.902 182.399 300.978 183.111C300.091 183.795 299.075 184.064 297.93 183.916L295.701 201.196C295.553 202.341 295.017 203.27 294.094 203.983C293.174 204.663 292.158 204.931 291.045 204.787C289.9 204.64 288.969 204.12 288.252 203.229C287.572 202.31 287.306 201.277 287.454 200.132Z" fill="#B3223A"/>
<path d="M111.78 70.81C111.654 71.8313 111.229 72.7926 110.558 73.5727C109.887 74.3528 109 74.9168 108.009 75.1934C107.018 75.47 105.967 75.447 104.989 75.1271C104.011 74.8073 103.15 74.205 102.513 73.3962C101.877 72.5874 101.495 71.6084 101.414 70.5825C101.334 69.5567 101.559 68.53 102.061 67.6319C102.564 66.7338 103.321 66.0046 104.237 65.5362C105.153 65.0678 106.187 64.8812 107.21 65C107.893 65.078 108.553 65.2906 109.154 65.6256C109.754 65.9606 110.282 66.4113 110.707 66.9516C111.132 67.4919 111.445 68.1111 111.63 68.7733C111.814 69.4356 111.865 70.1279 111.78 70.81Z" fill="white"/>
<path d="M136.782 73.73C136.674 74.7595 136.262 75.7336 135.599 76.5285C134.936 77.3233 134.051 77.903 133.058 78.1938C132.064 78.4847 131.006 78.4735 130.019 78.1618C129.032 77.8501 128.16 77.2519 127.514 76.4432C126.867 75.6346 126.476 74.652 126.389 73.6204C126.303 72.5888 126.525 71.5548 127.028 70.6497C127.53 69.7447 128.291 69.0096 129.212 68.5377C130.133 68.0659 131.174 67.8787 132.202 68C133.565 68.1633 134.809 68.8555 135.665 69.9274C136.522 70.9993 136.923 72.365 136.782 73.73Z" fill="#79C9E8"/>
<path d="M162.689 76.76C162.575 77.7875 162.159 78.758 161.493 79.5485C160.826 80.339 159.94 80.9139 158.947 81.2002C157.954 81.4866 156.898 81.4715 155.913 81.1569C154.928 80.8423 154.059 80.2424 153.415 79.4332C152.772 78.624 152.383 77.642 152.299 76.6117C152.214 75.5813 152.437 74.5491 152.94 73.6457C153.443 72.7424 154.203 72.0087 155.123 71.5377C156.043 71.0667 157.083 70.8796 158.109 71C159.479 71.1606 160.729 71.8565 161.587 72.9357C162.445 74.0148 162.841 75.3897 162.689 76.76Z" fill="#FFBF4D"/>
<path d="M67.2005 252.18C67.2005 252.18 64.9505 250.07 66.4605 242.08C67.9705 234.09 71.8105 226.42 69.9305 217.76C68.0505 209.1 53.2805 187.24 53.2305 185.76C53.1805 184.28 48.6705 211.18 56.3105 221.76C63.9505 232.34 64.8705 236.02 64.5305 241.59C64.1905 247.16 64.6105 251.59 65.4405 252.94L67.2005 252.18Z" fill="#31D0AA"/>
<path d="M65.8122 236.11C64.9222 239.68 64.3822 248.61 65.8122 250.75C65.9422 250.95 66.1322 250.84 66.3722 250.47C65.9422 248.99 65.6522 246.4 66.4722 242.08C67.9922 234.08 71.8222 226.42 69.9422 217.76C68.0622 209.1 53.2922 187.24 53.2422 185.76C53.2422 185.76 55.4722 203.96 62.9622 216.49C68.3222 225.5 66.6922 232.55 65.8122 236.11Z" fill="#27A688"/>
<path d="M69.903 251.62C69.903 251.62 65.563 240.79 72.903 231.41C80.243 222.03 92.003 210 92.263 205.22C92.263 205.22 95.263 227.87 85.713 234.28C76.163 240.69 69.433 241.72 71.093 251.58L69.903 251.62Z" fill="#31D0AA"/>
<path d="M80.2311 229.73C69.5511 237.5 68.6811 246.45 70.3411 250.59C70.4003 250.741 70.4933 250.876 70.6129 250.985C70.7325 251.094 70.8756 251.175 71.0311 251.22C69.6011 241.7 76.2611 240.62 85.7111 234.28C95.1611 227.94 92.2611 205.22 92.2611 205.22C92.2611 205.22 90.9011 222 80.2311 229.73Z" fill="#27A688"/>
<path d="M62.7602 251.87C63.6058 247.953 63.8252 243.926 63.4102 239.94C62.6702 233.75 56.2002 230.26 50.1602 223.72C47.0502 220.36 46.1602 202.56 48.0602 200.91C48.0602 200.91 37.3902 213.84 39.0602 223.31C40.7302 232.78 58.1202 238.93 59.7302 243.51C60.6939 246.21 61.1943 249.053 61.2102 251.92L62.7602 251.87Z" fill="#31D0AA"/>
<path d="M44.4494 206C40.9194 215.55 44.5394 227.12 56.2594 234.3C64.8794 239.59 62.1294 250.59 62.1294 250.59L63.5394 246.25C63.6927 244.147 63.6491 242.035 63.4094 239.94C62.6694 233.75 56.1994 230.26 50.1594 223.72C47.1594 220.48 46.1594 203.81 47.8594 201.15C47.3794 201.77 45.9994 203.56 44.4494 206Z" fill="#27A688"/>
<path d="M47.8594 201.15L48.0594 200.91C47.9831 200.981 47.9159 201.062 47.8594 201.15Z" fill="#49B4D6"/>
<path d="M72.1328 251.15C72.1328 251.15 74.6328 241.87 80.8228 240.62C87.0128 239.37 94.1028 230.23 94.4928 228.44C94.4928 228.44 93.4428 245.68 72.1328 251.15Z" fill="#31D0AA"/>
<path d="M80.463 243.69C76.673 245.59 75.103 248.13 74.543 250.45C93.543 244.35 94.493 228.45 94.493 228.45C94.2511 229.099 93.9141 229.709 93.493 230.26C91.663 233.51 87.163 240.34 80.463 243.69Z" fill="#27A688"/>
<path d="M85.5102 247.73H53.1602L57.0002 271.9C57.1446 272.786 57.5988 273.592 58.2819 274.174C58.965 274.756 59.8325 275.077 60.7302 275.08H77.9402C78.8389 275.082 79.7086 274.762 80.3925 274.179C81.0764 273.596 81.5295 272.788 81.6702 271.9L85.5102 247.73Z" fill="#FFBF4D"/>
<path d="M84.8802 251.73L85.5102 247.73H53.1602L53.8002 251.73H84.8802Z" fill="#FF9F50"/>
<path d="M77.6794 247.73L73.8294 271.9C73.689 272.786 73.2373 273.593 72.5555 274.176C71.8737 274.758 71.0064 275.079 70.1094 275.08H77.9394C78.8381 275.082 79.7078 274.762 80.3917 274.179C81.0756 273.596 81.5287 272.788 81.6694 271.9L85.5094 247.73H77.6794Z" fill="#FF9F50"/>
<path d="M67.2226 102.56C68.9182 102.577 70.5625 101.979 71.8499 100.875C73.1374 99.7716 73.9805 98.2383 74.2226 96.56C74.3068 95.9301 74.3502 95.2955 74.3526 94.66C74.3487 92.8351 73.9852 91.0288 73.2829 89.3445C72.5806 87.6601 71.5533 86.1307 70.2596 84.8435C68.966 83.5564 67.4314 82.5367 65.7435 81.8429C64.0556 81.1491 62.2475 80.7947 60.4226 80.8C60.1126 80.8 59.7926 80.8 59.4826 80.8C59.2057 76.9689 57.4462 73.3968 54.5778 70.8421C51.7095 68.2875 47.9582 66.9516 44.1208 67.1182C40.2834 67.2848 36.662 68.9408 34.0259 71.7345C31.3898 74.5281 29.9465 78.2394 30.0026 82.08C30.0026 82.44 30.0026 82.8 30.0026 83.16C27.8362 81.9618 25.4031 81.3282 22.9275 81.3176C20.4518 81.3069 18.0133 81.9195 15.8367 83.099C13.6601 84.2785 11.8153 85.9868 10.4724 88.0666C9.12957 90.1465 8.3318 92.5308 8.15264 95C8.14782 95.0566 8.14782 95.1134 8.15264 95.17C8.09672 96.1231 8.23638 97.0777 8.56304 97.9749C8.88969 98.872 9.39644 99.6929 10.0521 100.387C10.7078 101.081 11.4985 101.634 12.3757 102.011C13.2528 102.388 14.1978 102.582 15.1526 102.58L67.2226 102.56Z" fill="#A5E3F6"/>
<path d="M266.903 32C277.903 32 278.503 15.46 267.533 14.93H266.623C264.718 14.9288 262.825 15.2257 261.013 15.81C260.281 11.348 257.969 7.29769 254.5 4.39794C251.03 1.49819 246.634 -0.0578191 242.113 0.0137135C237.592 0.0852462 233.247 1.77956 229.871 4.78761C226.495 7.79567 224.313 11.917 223.723 16.4C220.034 14.6376 215.842 14.2304 211.883 15.25C202.273 17.7 204.293 32 214.203 32H266.903Z" fill="#A5E3F6"/>
<path d="M398.871 113.47C409.871 113.47 410.471 96.94 399.501 96.4H398.591C396.683 96.3988 394.787 96.6957 392.971 97.28C392.239 92.818 389.928 88.7677 386.458 85.8679C382.989 82.9682 378.592 81.4122 374.071 81.4837C369.55 81.5552 365.206 83.2496 361.83 86.2576C358.454 89.2657 356.271 93.387 355.681 97.87C353.338 96.7558 350.776 96.1784 348.181 96.18C346.714 96.1796 345.253 96.361 343.831 96.72C334.221 99.2 336.241 113.49 346.161 113.49L398.871 113.47Z" fill="#A5E3F6"/>
<path d="M183.431 235.69C181.706 235.688 180.024 235.155 178.614 234.162C177.204 233.169 176.135 231.766 175.552 230.143C174.969 228.52 174.901 226.756 175.357 225.093C175.813 223.43 176.771 221.948 178.101 220.85L185.101 215.05L191.101 210.05L197.701 204.59L197.871 204.46C198.911 203.666 200.182 203.234 201.491 203.23C202.601 203.228 203.689 203.537 204.632 204.122C205.576 204.707 206.336 205.545 206.827 206.54C207.319 207.536 207.522 208.649 207.413 209.753C207.304 210.858 206.887 211.91 206.211 212.79L206.081 212.97L201.211 218.86L200.621 219.57L189.901 232.65C189.114 233.603 188.125 234.37 187.007 234.895C185.888 235.421 184.667 235.692 183.431 235.69Z" fill="#D5B185"/>
<path d="M201.542 204.16C202.494 204.141 203.43 204.393 204.243 204.887C205.056 205.382 205.711 206.098 206.131 206.952C206.551 207.805 206.718 208.761 206.614 209.706C206.51 210.652 206.138 211.548 205.542 212.29L205.442 212.43L200.572 218.32L200.002 219L195.002 225L189.202 232C188.54 232.81 187.715 233.472 186.781 233.943C185.846 234.415 184.824 234.685 183.779 234.737C182.734 234.789 181.689 234.622 180.713 234.245C179.736 233.869 178.85 233.293 178.11 232.553C177.37 231.813 176.793 230.926 176.417 229.95C176.041 228.973 175.873 227.929 175.925 226.884C175.977 225.839 176.248 224.816 176.719 223.882C177.191 222.948 177.853 222.123 178.662 221.46L185.662 215.66L191.662 210.66L192.372 210.07L198.262 205.2L198.402 205.1C199.285 204.42 200.368 204.051 201.482 204.05L201.542 204.16ZM201.482 202.26C199.979 202.264 198.518 202.759 197.322 203.67L197.132 203.82L191.232 208.69L190.522 209.28L184.522 214.28L177.522 220.08C176.526 220.903 175.712 221.925 175.133 223.08C174.554 224.236 174.224 225.5 174.163 226.791C174.102 228.082 174.311 229.372 174.778 230.577C175.244 231.782 175.958 232.877 176.872 233.79C177.786 234.705 178.88 235.418 180.085 235.885C181.291 236.351 182.58 236.561 183.871 236.5C185.162 236.438 186.426 236.108 187.582 235.529C188.738 234.951 189.76 234.137 190.582 233.14L196.382 226.14L201.382 220.14L201.972 219.43L206.842 213.54L207.002 213.32C207.783 212.307 208.264 211.096 208.39 209.823C208.516 208.551 208.282 207.268 207.716 206.122C207.149 204.976 206.271 204.012 205.184 203.34C204.096 202.668 202.841 202.314 201.562 202.32L201.482 202.26Z" fill="#35353D"/>
<path d="M190.4 217.42C190.394 217.86 190.243 218.285 189.97 218.63L188.15 220.85L186.07 223.39L183.9 226C183.646 226.282 183.338 226.509 182.993 226.668C182.649 226.828 182.276 226.915 181.897 226.927C181.518 226.938 181.14 226.872 180.787 226.733C180.434 226.595 180.112 226.386 179.842 226.12C179.572 225.854 179.358 225.535 179.214 225.184C179.07 224.833 178.999 224.457 179.004 224.077C179.01 223.698 179.092 223.324 179.246 222.977C179.4 222.63 179.623 222.318 179.9 222.06L182.53 219.87L185.05 217.78L187.25 215.94C187.612 215.636 188.075 215.479 188.547 215.5C189.019 215.52 189.466 215.716 189.8 216.05C189.986 216.227 190.135 216.44 190.238 216.675C190.341 216.91 190.396 217.163 190.4 217.42Z" fill="#DFC5A4"/>
<path d="M205.542 212.29L205.442 212.43L200.572 218.32L200.002 219L191.742 210.74L192.452 210.15L198.342 205.28L198.482 205.18L205.542 212.29Z" fill="#CA9E67"/>
<path d="M184.941 215.7L192.471 209.49L201.261 218.29L195.051 225.81L184.941 215.7Z" fill="#B3223A"/>
<path d="M192.43 210.18L200.57 218.32L195 225.05L185.69 215.74L192.42 210.18H192.43ZM192.49 208.8L191.77 209.39L185.05 215L184.18 215.72L184.97 216.51L194.29 225.83L195.08 226.62L195.8 225.75L201.36 219.02L201.95 218.3L201.29 217.65L193.16 209.51L192.5 208.85L192.49 208.8Z" fill="#35353D"/>
<path d="M221.603 153.58C215.409 153.582 209.354 155.421 204.205 158.863C199.056 162.306 195.043 167.198 192.674 172.921C190.305 178.644 189.686 184.942 190.896 191.016C192.106 197.091 195.089 202.671 199.47 207.05C203.851 211.429 209.431 214.411 215.506 215.619C221.582 216.827 227.879 216.206 233.601 213.835C239.323 211.464 244.214 207.45 247.655 202.299C251.096 197.149 252.933 191.094 252.933 184.9C252.922 176.595 249.618 168.633 243.744 162.762C237.871 156.89 229.908 153.588 221.603 153.58ZM236.793 200.09C233.278 203.607 228.653 205.796 223.704 206.285C218.756 206.773 213.792 205.531 209.657 202.769C205.523 200.008 202.473 195.898 201.029 191.14C199.585 186.382 199.836 181.271 201.738 176.677C203.64 172.083 207.077 168.291 211.461 165.947C215.846 163.603 220.908 162.851 225.785 163.821C230.662 164.791 235.051 167.422 238.205 171.266C241.36 175.109 243.083 179.928 243.083 184.9C243.09 187.722 242.538 190.517 241.459 193.125C240.379 195.732 238.793 198.099 236.793 200.09Z" fill="#D5B185"/>
<path d="M244.389 162.12C239.119 156.845 232.182 153.56 224.761 152.826C217.34 152.093 209.894 153.955 203.692 158.096C197.49 162.237 192.916 168.4 190.75 175.536C188.583 182.671 188.958 190.337 191.81 197.228C194.662 204.118 199.816 209.806 206.392 213.322C212.968 216.838 220.56 217.966 227.874 216.511C235.188 215.057 241.771 211.112 246.502 205.348C251.234 199.584 253.819 192.357 253.819 184.9C253.832 180.668 253.005 176.476 251.386 172.565C249.768 168.655 247.389 165.105 244.389 162.12ZM221.599 215.33C215.58 215.336 209.693 213.556 204.685 210.216C199.677 206.876 195.772 202.126 193.464 196.566C191.157 191.006 190.55 184.887 191.72 178.982C192.891 173.077 195.787 167.652 200.042 163.393C204.296 159.135 209.718 156.233 215.622 155.057C221.525 153.88 227.645 154.481 233.208 156.783C238.77 159.086 243.524 162.986 246.869 167.991C250.214 172.996 251.999 178.88 251.999 184.9C251.999 192.965 248.798 200.701 243.097 206.407C237.397 212.113 229.665 215.322 221.599 215.33Z" fill="#35353D"/>
<path d="M221.942 206.89C217.756 206.957 213.642 205.799 210.105 203.559C206.568 201.319 203.763 198.094 202.035 194.281C200.306 190.469 199.73 186.234 200.376 182.098C201.022 177.961 202.863 174.104 205.672 171C207.168 169.341 208.912 167.924 210.842 166.8C202.252 170.24 196.422 178.21 196.842 187.18C197.442 198.75 208.282 207.58 221.042 206.92L221.942 206.89Z" fill="#DFC5A4"/>
<path d="M221.602 207.27C216.206 207.255 210.997 205.289 206.937 201.733C202.878 198.178 200.242 193.274 199.516 187.926C198.79 182.579 200.023 177.149 202.988 172.64C205.953 168.131 210.449 164.848 215.647 163.395C220.844 161.942 226.391 162.419 231.264 164.738C236.137 167.056 240.007 171.059 242.159 176.008C244.311 180.957 244.599 186.517 242.971 191.662C241.343 196.807 237.909 201.19 233.302 204C233.1 204.106 232.866 204.131 232.646 204.07C232.426 204.009 232.238 203.868 232.118 203.674C231.999 203.479 231.958 203.247 232.003 203.024C232.048 202.8 232.177 202.602 232.362 202.47C236.61 199.885 239.779 195.851 241.284 191.112C242.789 186.372 242.528 181.249 240.549 176.687C238.571 172.125 235.008 168.433 230.519 166.294C226.031 164.154 220.92 163.711 216.13 165.047C211.34 166.382 207.195 169.406 204.461 173.559C201.727 177.712 200.589 182.715 201.256 187.642C201.923 192.57 204.35 197.089 208.09 200.366C211.83 203.643 216.63 205.456 221.602 205.47C221.728 205.457 221.854 205.47 221.974 205.509C222.095 205.548 222.205 205.612 222.299 205.696C222.393 205.78 222.468 205.884 222.519 205.999C222.57 206.114 222.597 206.239 222.597 206.365C222.597 206.491 222.57 206.616 222.519 206.731C222.468 206.846 222.393 206.95 222.299 207.034C222.205 207.118 222.095 207.182 221.974 207.221C221.854 207.26 221.728 207.273 221.602 207.26V207.27Z" fill="#35353D"/>
<path d="M227.741 204.08C227.488 204.08 227.24 204.155 227.03 204.296C226.819 204.436 226.655 204.636 226.558 204.87C226.461 205.104 226.436 205.361 226.486 205.61C226.535 205.858 226.657 206.086 226.836 206.265C227.015 206.444 227.243 206.566 227.491 206.615C227.74 206.665 227.997 206.639 228.231 206.543C228.465 206.446 228.665 206.282 228.805 206.071C228.946 205.861 229.021 205.613 229.021 205.36C229.021 205.021 228.886 204.695 228.646 204.455C228.406 204.215 228.08 204.08 227.741 204.08Z" fill="#35353D"/>
<path d="M252.001 184.9C252.001 185.64 252.001 186.38 251.921 187.1C250.751 171.3 236.641 158.82 219.401 158.82C211 158.762 202.882 161.848 196.641 167.47C200.347 162.163 205.65 158.176 211.779 156.09C217.907 154.004 224.541 153.928 230.716 155.872C236.891 157.816 242.285 161.679 246.113 166.9C249.941 172.121 252.003 178.426 252.001 184.9Z" fill="#DFC5A4"/>
<path d="M228.383 179.78C229.863 179.78 231.063 178.58 231.063 177.1C231.063 175.62 229.863 174.42 228.383 174.42C226.903 174.42 225.703 175.62 225.703 177.1C225.703 178.58 226.903 179.78 228.383 179.78Z" fill="#35353D"/>
<path d="M215.082 181.06C216.562 181.06 217.762 179.86 217.762 178.38C217.762 176.9 216.562 175.7 215.082 175.7C213.602 175.7 212.402 176.9 212.402 178.38C212.402 179.86 213.602 181.06 215.082 181.06Z" fill="#35353D"/>
<path d="M230.042 177.23C230.749 177.23 231.322 176.657 231.322 175.95C231.322 175.243 230.749 174.67 230.042 174.67C229.335 174.67 228.762 175.243 228.762 175.95C228.762 176.657 229.335 177.23 230.042 177.23Z" fill="white"/>
<path d="M216.491 178.51C217.198 178.51 217.771 177.937 217.771 177.23C217.771 176.523 217.198 175.95 216.491 175.95C215.784 175.95 215.211 176.523 215.211 177.23C215.211 177.937 215.784 178.51 216.491 178.51Z" fill="white"/>
<path d="M217.259 194.87C217.152 194.872 217.046 194.85 216.947 194.807C216.849 194.764 216.761 194.7 216.689 194.62C216.554 194.469 216.484 194.272 216.493 194.07C216.502 193.868 216.591 193.677 216.739 193.54C217.009 193.29 223.589 187.36 231.379 190.85C231.562 190.933 231.705 191.084 231.777 191.271C231.85 191.458 231.847 191.665 231.769 191.85C231.684 192.031 231.533 192.172 231.347 192.244C231.161 192.317 230.954 192.315 230.769 192.24C223.899 189.16 217.859 194.6 217.769 194.66C217.632 194.791 217.45 194.866 217.259 194.87Z" fill="#35353D"/>
</g>
<defs>
<clipPath id="clip0">
<rect width="430" height="275.92" fill="white"/>
</clipPath>
</defs>
</svg>
