<svg xmlns="http://www.w3.org/2000/svg" width="24" height="24" fill="none" viewBox="0 0 24 24">
    <path fill="#77B255" d="M13.068 21.553c4.339 4.337 11.502-5.113 10.48-5.113-5.113 0-14.818.774-10.48 5.113z"/>
    <path fill="#77B255" d="M10.43 22.248C6.407 26.269-.048 17.508.9 17.508c2.54 0 6.25-.231 8.527.579 1.972.701 2.87 2.294 1.001 4.161z"/>
    <path fill="#F4ABBA" d="M23.075 10.503c-.035-.601-.117-1.724-.932-2.818-.773-1.033-2.537-2.248-3.69-1.724.345-1.117-.175-2.75-.793-3.66-.786-1.157-2.842-2.562-5.431-2.017C11.059.53 9.442 1.641 9.14 2.86c-.787-.98-2.813-1.117-4.01-.815-1.35.341-2.103 1.185-2.493 1.641l.002-.003-.02.022-.018.022c-.388.46-1.104 1.33-1.231 2.716-.129 1.431.5 3.888 2.017 4.028l.343.034c-1.514.066-2.381 2.436-2.397 3.867-.014 1.401.618 2.337.962 2.829l-.002-.003c.006.007.013.016.017.024.005.007.013.015.017.024.349.489 1.017 1.396 2.344 1.85 1.305.447 3.702.438 4.378-.823-.182 1.496 2.018 2.718 3.446 2.958 1.41.239 2.473-.238 3.033-.502l-.003.002.027-.014.027-.013c.559-.267 1.599-.785 2.308-2.027.486-.854.847-2.268.634-3.343l.128.085c1.218.816 3.087-.746 3.804-1.959.696-1.174.62-2.95.62-2.957z"/>
    <path fill="#EA596E" d="M18.362 9.028c-1.19-.665-3.25-.29-4.528.205-.178-.312-.414-.583-.7-.797.928-1.071 2.35-3.062.978-4.241-1.46-1.256-2.494 1.436-2.384 3.736-.045-.002-.088-.013-.134-.013-.679 0-1.293.268-1.754.697-.934-1.518-2.628-2.83-3.543-1.595-.988 1.335.765 2.102 2.815 2.8-.06.22-.103.445-.103.683 0 .304.062.592.159.862-1.694.488-4.158 1.812-2.807 3.274 1.415 1.53 2.981-.826 3.736-2.036.423.303.938.485 1.498.485.15 0 .294-.02.437-.044-.073 3.201.962 4.713 2.69 3.928 1.53-.695-.09-3.533-1.187-4.777.21-.241.376-.519.486-.827 4.672 1.696 5.726-1.567 4.34-2.34z"/>
    <path fill="#BE1931" d="M11.805 11.64c-.453 0-.446-.375-.555-.834-.355-1.489-1.587-4.205-3.067-6.109-.34-.436-.261-1.064.175-1.403.436-.339 1.064-.26 1.403.175 1.626 2.091 2.176 4.936 2.655 6.948.127.537.158 1.067-.38 1.194-.077.019-.155.028-.231.028z"/>
    <path fill="#FFCC4D" d="M10.603 3.551c.332.456.053 1.226-.624 1.719l-.317.231c-.677.493-1.495.524-1.827.068L5.982 3.024c-.332-.456-.053-1.225.624-1.718l.316-.231C7.6.582 8.417.55 8.75 1.007l1.854 2.544z"/>
</svg>
