<svg xmlns="http://www.w3.org/2000/svg" xmlns:xlink="http://www.w3.org/1999/xlink" viewBox="0 0 72 72"><defs><style>.cls-1{fill:url(#linear-gradient);}.cls-2{fill:#b3223a;}</style><linearGradient id="linear-gradient" x1="61.46" y1="61.46" x2="10.54" y2="10.54" gradientUnits="userSpaceOnUse"><stop offset="0" stop-color="#ca9e67"/><stop offset="1" stop-color="#d5b185"/></linearGradient></defs><g id="Layer_2" data-name="Layer 2"><g id="Layer_1-2" data-name="Layer 1"><rect class="cls-1" width="72" height="72" rx="36"/><path class="cls-2" d="M60.46,47.28a.69.69,0,0,1-.69-.69,22.4,22.4,0,0,0-5.94-14.75,34.25,34.25,0,0,0-6-5.34,42.62,42.62,0,0,0-6-3.52,51.19,51.19,0,0,0-5.6-2.29.72.72,0,0,0-.41,0A48.17,48.17,0,0,0,30.18,23a43.31,43.31,0,0,0-6,3.51,34.18,34.18,0,0,0-6,5.35,22.35,22.35,0,0,0-5.94,14.74.69.69,0,1,1-1.38,0,23.72,23.72,0,0,1,6.28-15.65,35.45,35.45,0,0,1,6.24-5.56,44,44,0,0,1,6.21-3.64,50.74,50.74,0,0,1,5.77-2.35,2,2,0,0,1,1.3,0,49.52,49.52,0,0,1,5.76,2.35,43.54,43.54,0,0,1,6.22,3.64,35.45,35.45,0,0,1,6.24,5.56,23.74,23.74,0,0,1,6.28,15.65A.69.69,0,0,1,60.46,47.28Z"/><path class="cls-2" d="M48.23,47.28a.69.69,0,0,1-.69-.69,22.39,22.39,0,0,0-5.95-14.74,33.91,33.91,0,0,0-6-5.35,42.34,42.34,0,0,0-6-3.51.69.69,0,0,1,.6-1.25,43.59,43.59,0,0,1,6.21,3.64,35.13,35.13,0,0,1,6.24,5.56,23.77,23.77,0,0,1,6.29,15.65A.69.69,0,0,1,48.23,47.28Z"/><path class="cls-2" d="M48.23,47.28a.69.69,0,0,1-.69-.69,23.7,23.7,0,0,1,6.29-15.65.68.68,0,0,1,1-.07.67.67,0,0,1,.06,1,22.4,22.4,0,0,0-5.94,14.75A.69.69,0,0,1,48.23,47.28Z"/><path class="cls-2" d="M23.76,47.28a.69.69,0,0,1-.69-.69,23.75,23.75,0,0,1,6.29-15.65,35.09,35.09,0,0,1,6.24-5.56,43.82,43.82,0,0,1,6.21-3.64.7.7,0,0,1,.93.32.69.69,0,0,1-.33.92,43.6,43.6,0,0,0-6,3.52,34.18,34.18,0,0,0-6,5.34,22.41,22.41,0,0,0-5.95,14.75A.69.69,0,0,1,23.76,47.28Z"/><path class="cls-2" d="M23.76,47.28a.69.69,0,0,1-.69-.69,22.37,22.37,0,0,0-5.94-14.74.7.7,0,0,1,.07-1,.68.68,0,0,1,1,.07,23.76,23.76,0,0,1,6.28,15.65A.69.69,0,0,1,23.76,47.28Z"/><path class="cls-2" d="M36,47.28a.69.69,0,0,1-.69-.69,22.43,22.43,0,0,0-6-14.75,34.1,34.1,0,0,0-6-5.34.69.69,0,1,1,.79-1.12,35,35,0,0,1,6.24,5.55,23.74,23.74,0,0,1,6.29,15.66A.69.69,0,0,1,36,47.28Z"/><path class="cls-2" d="M36,47.28a.69.69,0,0,1-.69-.69,23.72,23.72,0,0,1,6.28-15.65,34.48,34.48,0,0,1,6.25-5.56.69.69,0,1,1,.79,1.12,33.94,33.94,0,0,0-6,5.35,22.35,22.35,0,0,0-5.94,14.74A.69.69,0,0,1,36,47.28Z"/></g></g></svg>