<svg xmlns="http://www.w3.org/2000/svg" viewBox="0 0 159.32 88.67"><defs><style>.cls-1{fill:#fff;}</style></defs><g id="Layer_2" data-name="Layer 2"><g id="Layer_1-2" data-name="Layer 1"><path class="cls-1" d="M157.14,88.67A2.18,2.18,0,0,1,155,86.49c0-16.46-6.51-32.61-18.84-46.7a106.76,106.76,0,0,0-19-16.91A135.67,135.67,0,0,0,98.07,11.72,156.89,156.89,0,0,0,80.31,4.48a2,2,0,0,0-1.29,0,156.41,156.41,0,0,0-17.78,7.25A134.88,134.88,0,0,0,42.18,22.88a107.19,107.19,0,0,0-19,16.92C10.88,53.89,4.37,70,4.37,86.49a2.19,2.19,0,0,1-4.37,0C0,69,6.88,51.82,19.91,36.92A111.45,111.45,0,0,1,39.66,19.3,139.58,139.58,0,0,1,59.34,7.8,159.55,159.55,0,0,1,77.61.34a6.43,6.43,0,0,1,4.11,0A161.08,161.08,0,0,1,100,7.78,140.42,140.42,0,0,1,119.66,19.3a111.84,111.84,0,0,1,19.75,17.61c13,14.9,19.91,32.05,19.91,49.58A2.18,2.18,0,0,1,157.14,88.67Z"/><path class="cls-1" d="M118.38,88.67a2.18,2.18,0,0,1-2.18-2.18c0-16.45-6.51-32.6-18.82-46.69a107.82,107.82,0,0,0-19-16.92,134.1,134.1,0,0,0-19-11.14,2.19,2.19,0,1,1,1.9-3.94A140.37,140.37,0,0,1,80.91,19.3a112.12,112.12,0,0,1,19.76,17.62c13,14.91,19.9,32.05,19.9,49.57A2.18,2.18,0,0,1,118.38,88.67Z"/><path class="cls-1" d="M118.38,88.67a2.18,2.18,0,0,1-2.18-2.18c0-17.53,6.88-34.68,19.91-49.58a2.19,2.19,0,1,1,3.29,2.88C127.08,53.88,120.57,70,120.57,86.49A2.18,2.18,0,0,1,118.38,88.67Z"/><path class="cls-1" d="M40.91,88.67a2.17,2.17,0,0,1-2.18-2.18c0-17.53,6.88-34.68,19.91-49.58A111.84,111.84,0,0,1,78.39,19.3,141.93,141.93,0,0,1,98.07,7.78,2.19,2.19,0,0,1,100,11.72,135.74,135.74,0,0,0,80.91,22.88a106.41,106.41,0,0,0-19,16.91C49.61,53.88,43.1,70,43.1,86.49A2.18,2.18,0,0,1,40.91,88.67Z"/><path class="cls-1" d="M40.91,88.67a2.17,2.17,0,0,1-2.18-2.18C38.73,70,32.22,53.9,19.91,39.8a2.19,2.19,0,0,1,3.29-2.88C36.22,51.83,43.1,69,43.1,86.49A2.18,2.18,0,0,1,40.91,88.67Z"/><path class="cls-1" d="M79.66,88.67a2.18,2.18,0,0,1-2.19-2.18c0-16.45-6.51-32.6-18.83-46.7a106.59,106.59,0,0,0-19-16.91,2.19,2.19,0,1,1,2.52-3.58A111.2,111.2,0,0,1,61.93,36.91C75,51.82,81.84,69,81.84,86.49A2.18,2.18,0,0,1,79.66,88.67Z"/><path class="cls-1" d="M79.66,88.67a2.18,2.18,0,0,1-2.19-2.18c0-17.53,6.89-34.67,19.91-49.57A111,111,0,0,1,117.14,19.3a2.19,2.19,0,0,1,2.52,3.58,106.34,106.34,0,0,0-19,16.92C88.35,53.89,81.84,70,81.84,86.49A2.18,2.18,0,0,1,79.66,88.67Z"/></g></g></svg>