<svg xmlns="http://www.w3.org/2000/svg" viewBox="0 0 273.32 61.67"><defs><style>.cls-1{fill:#fff;}</style></defs><g id="Layer_2" data-name="Layer 2"><g id="Layer_1-2" data-name="Layer 1"><path class="cls-1" d="M97.25,25.85a1.31,1.31,0,0,0-.11-.12A77.55,77.55,0,0,0,83.39,13.46h0l0,0A96.79,96.79,0,0,0,69.79,5.5a.71.71,0,0,0-.17-.09A114.94,114.94,0,0,0,56.91.23,4.3,4.3,0,0,0,55.53,0a4.36,4.36,0,0,0-1.39.23,112.71,112.71,0,0,0-12.7,5.18l0,0h0a98.54,98.54,0,0,0-13.7,8l-.15.11A77,77,0,0,0,14,25.61a1.46,1.46,0,0,0-.21.23C4.77,36.22,0,48.12,0,60.29a1.38,1.38,0,1,0,2.76,0c0-11,4.17-21.83,12-31.36l.12-.14.12.14c7.87,9.54,12,20.38,12,31.36a1.38,1.38,0,1,0,2.75,0c0-11,4.16-21.83,12-31.37l.12-.14.12.14c7.87,9.54,12,20.38,12,31.37a1.38,1.38,0,0,0,2.76,0c0-11,4.16-21.82,12-31.36l.12-.14.12.14c7.88,9.54,12,20.38,12,31.36a1.38,1.38,0,1,0,2.75,0c0-11,4.16-21.83,12-31.37l.12-.14.12.14c7.88,9.53,12.05,20.38,12.05,31.37a1.38,1.38,0,1,0,2.75,0C111,48.12,106.27,36.21,97.25,25.85ZM45.43,6.59C48.53,5.21,51.76,4,55,2.84a1.6,1.6,0,0,1,1,0C59.39,4,62.61,5.25,65.61,6.59l.28.13-.27.14a95.06,95.06,0,0,0-10,6l-.09.06-.08-.06a94.92,94.92,0,0,0-10-6l-.28-.14Zm-5.37,20.2A55.05,55.05,0,0,0,28.6,48.45l-.15.56-.14-.56A55.47,55.47,0,0,0,16.84,26.79l-.09-.1.09-.1A74.68,74.68,0,0,1,28.36,16.36l.09-.06.09.06A73,73,0,0,1,40.06,26.59l.09.1ZM42,24.59l-.11-.12A76.72,76.72,0,0,0,31,14.75l-.17-.13.18-.11A94,94,0,0,1,41.91,8.25l.07,0,.07,0a91.47,91.47,0,0,1,10.88,6.26l.18.11-.17.13A77.43,77.43,0,0,0,42.1,24.47ZM67.13,26.8A55.15,55.15,0,0,0,55.66,48.43l-.14.56-.15-.56A55.25,55.25,0,0,0,43.92,26.78l-.09-.1.09-.1a73.6,73.6,0,0,1,11.5-10.22l.09-.07.09.07A73.37,73.37,0,0,1,67.13,26.6l.09.1Zm1.93-2.2L69,24.48a78.27,78.27,0,0,0-10.87-9.73l-.17-.13.18-.11A93.66,93.66,0,0,1,69,8.24l.07,0,.07,0A93.5,93.5,0,0,1,80,14.5l.18.11-.17.13a75.85,75.85,0,0,0-10.87,9.74ZM94.2,26.78A55.14,55.14,0,0,0,82.74,48.43l-.15.56-.14-.56A55.4,55.4,0,0,0,71,26.79l-.09-.1.09-.1A73.17,73.17,0,0,1,82.51,16.36l.09-.06.09.06A74.08,74.08,0,0,1,94.2,26.58l.09.1Z"/><path class="cls-1" d="M249.84,33v5.34a7.79,7.79,0,0,1-7.78,7.77H228.73a9.41,9.41,0,0,1-9.4-9.4V22a.28.28,0,0,1,.28-.28H224a.28.28,0,0,1,.28.28V35.61a5.58,5.58,0,0,0,5.58,5.58H240.4A3.57,3.57,0,0,0,244,37.62v-3.3a.58.58,0,0,0-.58-.58h-6.16a5.59,5.59,0,0,1-5.58-5.59V24a8.46,8.46,0,0,1,8.45-8.46h8.5a.29.29,0,0,1,.28.29V20.2a.28.28,0,0,1-.28.28h-7.14a4.91,4.91,0,0,0-4.9,4.9v2.34a1.1,1.1,0,0,0,1.1,1.1h8A4.17,4.17,0,0,1,249.84,33Z"/><path class="cls-1" d="M265.24,15.57h-2a8.09,8.09,0,0,0-8.08,8.08v4.5a5.59,5.59,0,0,0,5.58,5.59h6.16a.58.58,0,0,1,.58.58v3.3a3.57,3.57,0,0,1-3.57,3.57h-8.49a.28.28,0,0,0-.28.28v4.35a.28.28,0,0,0,.28.28h10.16a7.78,7.78,0,0,0,7.77-7.77V23.65A8.09,8.09,0,0,0,265.24,15.57Zm2.17,13.25h-6.26a1.11,1.11,0,0,1-1.11-1.1V24a3.52,3.52,0,0,1,3.51-3.51,3.86,3.86,0,0,1,3.86,3.86Z"/><path class="cls-1" d="M213,21.19v7.43a.28.28,0,0,1-.11.23l-4.07,3-1,.71-1.07.78a2.14,2.14,0,0,1-1.26.42l-14.7,0H185a1.14,1.14,0,0,1-.93-.48L183.16,32a.47.47,0,0,0-.38-.19.52.52,0,0,0-.29.09l-.81.6-1.19.87a1.72,1.72,0,0,1-1,.33h-18.8v4.6a7.79,7.79,0,0,1-7.78,7.77H142.75a.28.28,0,0,1-.29-.28V41.47a.29.29,0,0,1,.29-.28h8.53a3.57,3.57,0,0,0,3.57-3.57V21.07a.29.29,0,0,1,.28-.29h5.26a.29.29,0,0,1,.29.29v7.75h17.57a.54.54,0,0,0,.34-.12l3.08-2.25a.59.59,0,0,0,.24-.47V21.64a1.16,1.16,0,0,0-1.16-1.16H167.26a.26.26,0,0,1-.25-.15.28.28,0,0,1,0-.29l2.91-4.34a.28.28,0,0,1,.23-.13h11a5.62,5.62,0,0,1,5.62,5.62v7.63h17.56a.55.55,0,0,0,.35-.12l3.08-2.25a.59.59,0,0,0,.24-.47V21.64a1.16,1.16,0,0,0-1.16-1.16H193.4a.28.28,0,0,1-.23-.44l2.91-4.34a.28.28,0,0,1,.23-.13h11A5.62,5.62,0,0,1,213,21.19Z"/><polygon class="cls-1" points="175 40.68 171.52 44.16 168.05 40.68 171.52 37.21 175 40.68"/><path class="cls-1" d="M140.2,15.57H129.66a.31.31,0,0,0-.24.13L126.52,20a.28.28,0,0,0,.23.44h3.34v7.68a5.59,5.59,0,0,0,5.58,5.58H148a.29.29,0,0,0,.29-.29V23.65A8.09,8.09,0,0,0,140.2,15.57Zm2.17,12.67a.59.59,0,0,1-.58.59H136.1a1.11,1.11,0,0,1-1.1-1.11V21.07a.58.58,0,0,1,.58-.59h2.93a3.87,3.87,0,0,1,3.86,3.86Z"/></g></g></svg>