<svg xmlns="http://www.w3.org/2000/svg" viewBox="0 0 32 32"><defs><style>.cls-1{fill:#9b9b9b;}.cls-2{fill:#fff;}</style></defs><g id="Layer_2" data-name="Layer 2"><g id="Layer_2-2" data-name="Layer 2"><circle class="cls-1" cx="16" cy="16" r="16"/><path class="cls-2" d="M6.66,15.86l10.77-4.44C18.5,11,22.1,9.48,22.1,9.48s1.67-.65,1.53.92c-.05.65-.42,2.92-.79,5.37L21.69,23s-.09,1.06-.88,1.25a3.85,3.85,0,0,1-2.31-.83c-.19-.14-3.47-2.22-4.67-3.24a.87.87,0,0,1,0-1.48c1.67-1.53,3.66-3.42,4.86-4.63.55-.55,1.11-1.85-1.2-.27L11,18.22a2.74,2.74,0,0,1-2.13.05c-1.39-.42-3-1-3-1s-1.11-.69.79-1.43Z"/></g></g></svg>