<svg width="24" height="24" fill="none" xmlns="http://www.w3.org/2000/svg">
    <path d="M3.012 11.22v4.49c0 4.49 1.8 6.29 6.29 6.29h5.39c4.49 0 6.29-1.8 6.29-6.29v-4.49" stroke="#fff" stroke-width="1.5" stroke-linecap="round" stroke-linejoin="round"/>
    <path d="M12 12c1.83 0 3.18-1.49 3-3.32L14.34 2H9.67L9 8.68C8.82 10.51 10.17 12 12 12z" stroke="#fff" stroke-width="1.5" stroke-linecap="round" stroke-linejoin="round"/>
    <path d="M18.01 12c2.02 0 3.5-1.64 3.3-3.65l-.28-2.75C20.67 3 19.67 2 17.05 2H14l.7 7.01c.17 1.65 1.66 2.99 3.31 2.99zM5.638 12c1.65 0 3.14-1.34 3.3-2.99l.22-2.21.48-4.8h-3.05c-2.62 0-3.62 1-3.98 3.6l-.27 2.75c-.2 2.01 1.28 3.65 3.3 3.65zM12 17c-1.67 0-2.5.83-2.5 2.5V22h5v-2.5c0-1.67-.83-2.5-2.5-2.5z" stroke="#fff" stroke-width="1.5" stroke-linecap="round" stroke-linejoin="round"/>
</svg>
