<svg xmlns="http://www.w3.org/2000/svg" xmlns:xlink="http://www.w3.org/1999/xlink" viewBox="0 0 32 32"><defs><style>.cls-1{fill:#fff;opacity:0;}.cls-2{fill:#9b9b9b;}.cls-3{fill:url(#linear-gradient);}.cls-4{fill:url(#radial-gradient);}.cls-5{fill:url(#radial-gradient-2);}.cls-6{fill:url(#linear-gradient-2);}.cls-7{fill:#777;}.cls-8{fill:url(#linear-gradient-3);}</style><linearGradient id="linear-gradient" x1="-144.52" y1="490.58" x2="-144.52" y2="514.76" gradientTransform="translate(171.07 -519.52) scale(1.07)" gradientUnits="userSpaceOnUse"><stop offset="0" stop-color="#fff"/><stop offset="1" stop-color="#e8efee"/></linearGradient><radialGradient id="radial-gradient" cx="-145.63" cy="500.39" r="15.3" gradientTransform="translate(171.07 -519.52) scale(1.07)" gradientUnits="userSpaceOnUse"><stop offset="0" stop-color="#fff" stop-opacity="0"/><stop offset="0.48" stop-color="#fdfdfd" stop-opacity="0.48"/><stop offset="0.66" stop-color="#f6f7f7" stop-opacity="0.65"/><stop offset="0.78" stop-color="#ebedec" stop-opacity="0.78"/><stop offset="0.88" stop-color="#dadddd" stop-opacity="0.88"/><stop offset="0.96" stop-color="#c4cac9" stop-opacity="0.96"/><stop offset="1" stop-color="#b8bfbe"/></radialGradient><radialGradient id="radial-gradient-2" cx="-149.1" cy="496.34" r="16.82" gradientTransform="translate(171.07 -519.52) scale(1.07)" gradientUnits="userSpaceOnUse"><stop offset="0" stop-color="#00a6f9"/><stop offset="0.25" stop-color="#00a0f7"/><stop offset="0.57" stop-color="#0091f0"/><stop offset="0.93" stop-color="#0077e4"/><stop offset="1" stop-color="#0071e2"/></radialGradient><linearGradient id="linear-gradient-2" x1="-131.61" y1="503.04" x2="-137.45" y2="497.2" gradientTransform="translate(171.07 -519.52) scale(1.07)" gradientUnits="userSpaceOnUse"><stop offset="0" stop-color="#c2cece" stop-opacity="0"/><stop offset="0.18" stop-color="#afbcbc" stop-opacity="0.18"/><stop offset="1" stop-color="#5b6a6a"/></linearGradient><linearGradient id="linear-gradient-3" x1="-140.15" y1="512.52" x2="-148.23" y2="504.44" gradientTransform="translate(171.07 -519.52) scale(1.07)" gradientUnits="userSpaceOnUse"><stop offset="0" stop-color="#c2cece" stop-opacity="0"/><stop offset="0.18" stop-color="#afbcbc" stop-opacity="0.18"/><stop offset="1" stop-color="#8c8c8c"/></linearGradient></defs><g id="Layer_2" data-name="Layer 2"><g id="Layer_2-2" data-name="Layer 2"><rect class="cls-1" width="32" height="32"/><circle class="cls-2" cx="16.91" cy="16" r="14.66"/><circle class="cls-3" cx="16.91" cy="16" r="13.66"/><path class="cls-4" d="M21.71,3.21A13.66,13.66,0,0,1,4.12,20.8,13.66,13.66,0,1,0,21.71,3.21Z"/><path class="cls-2" d="M11.62,8.34a17.26,17.26,0,0,1,.67-1.8A9.91,9.91,0,0,1,14,3.83,12.55,12.55,0,0,0,8.11,7.09,15.61,15.61,0,0,0,11.62,8.34Z"/><path class="cls-2" d="M25.71,7.09a14.18,14.18,0,0,1-1.82.76,17.45,17.45,0,0,1-1.69.49,17.26,17.26,0,0,0-.67-1.8,9.91,9.91,0,0,0-1.68-2.71h0A12.49,12.49,0,0,1,25.71,7.09Z"/><path class="cls-2" d="M22,16.65H11.87a26.09,26.09,0,0,0,.68,5.49,25.2,25.2,0,0,1,8.72,0A26.09,26.09,0,0,0,22,16.65Z"/><path class="cls-2" d="M21.27,9.86a24.73,24.73,0,0,1-4.36.38,24.73,24.73,0,0,1-4.36-.38,26.09,26.09,0,0,0-.68,5.49H22A26.09,26.09,0,0,0,21.27,9.86Z"/><path class="cls-5" d="M12.9,23.4c.18.54.37,1.05.58,1.54.95,2.17,2.2,3.42,3.43,3.42s2.48-1.25,3.43-3.42a16.4,16.4,0,0,0,.58-1.54,23.82,23.82,0,0,0-8,0Z"/><path class="cls-2" d="M20.92,8.6a16.4,16.4,0,0,0-.58-1.54c-.95-2.17-2.2-3.42-3.43-3.42s-2.48,1.25-3.43,3.42c-.21.49-.4,1-.58,1.54a23.75,23.75,0,0,0,4,.34A23.66,23.66,0,0,0,20.92,8.6Z"/><path class="cls-2" d="M11.28,9.6c-.19.79-.34,1.63-.46,2.49a28.52,28.52,0,0,0-.25,3.26H4.41A12.4,12.4,0,0,1,7,8.31l.18-.22.21.11A17.23,17.23,0,0,0,11.28,9.6Z"/><path class="cls-5" d="M22.2,23.66a17.26,17.26,0,0,1-.67,1.8,9.91,9.91,0,0,1-1.68,2.71,12.55,12.55,0,0,0,5.86-3.26A15.44,15.44,0,0,0,22.2,23.66Z"/><path class="cls-2" d="M26.41,8.2a17.31,17.31,0,0,1-3.87,1.4,27.25,27.25,0,0,1,.71,5.75h6.17a12.48,12.48,0,0,0-2.81-7.26Z"/><path class="cls-2" d="M23.25,16.65a27.25,27.25,0,0,1-.71,5.75,17.31,17.31,0,0,1,3.87,1.4l.2.11a12.48,12.48,0,0,0,2.81-7.26Z"/><path class="cls-2" d="M11.28,22.4c-.6.15-1.19.32-1.75.51a15.54,15.54,0,0,0-2.11.89l-.21.11a12.38,12.38,0,0,1-2.67-6,10.34,10.34,0,0,1-.13-1.26h6.16A27.25,27.25,0,0,0,11.28,22.4Z"/><path class="cls-5" d="M12.29,25.46a17.26,17.26,0,0,1-.67-1.8,15.61,15.61,0,0,0-3.51,1.25A12.55,12.55,0,0,0,14,28.17,9.91,9.91,0,0,1,12.29,25.46Z"/><path class="cls-2" d="M11.28,9.6c-.19.79-.34,1.63-.46,2.49L7,8.31l.18-.22.21.11A17.23,17.23,0,0,0,11.28,9.6Z"/><path class="cls-2" d="M11.28,22.4c-.6.15-1.19.32-1.75.51l-5-5a10.34,10.34,0,0,1-.13-1.26h6.16A27.25,27.25,0,0,0,11.28,22.4Z"/><path class="cls-2" d="M23.89,7.85a17.45,17.45,0,0,1-1.69.49,17.26,17.26,0,0,0-.67-1.8,9.91,9.91,0,0,0-1.68-2.71h0Z"/><path class="cls-6" d="M30.57,16a13.58,13.58,0,0,0-1.31-5.84,22.84,22.84,0,0,1-2.46,1.9c-1,.7-1.78,1.46-3.06,2.2a.76.76,0,0,0-.28,1,.79.79,0,0,0,.19.22l5.83,5.83A13.64,13.64,0,0,0,30.57,16Z"/><path class="cls-2" d="M24.78,16.65h4.63a12.1,12.1,0,0,1-.8,3.82Z"/><path class="cls-2" d="M29.41,15.35H23.49l0,0a.76.76,0,0,1,.28-1c1.28-.74,2-1.5,3.06-2.2q.91-.63,1.56-1.14A12.4,12.4,0,0,1,29.41,15.35Z"/><path class="cls-7" d="M31.87,8.06a2,2,0,0,0-2.06-1c-.46,0-1.75.15-2.35.25a17.36,17.36,0,0,1,1.12,1.58c.52-.06,1.55-.35,1.82-.33s0,.32-.14.51a5.88,5.88,0,0,1-.71.8,22,22,0,0,1-2.75,2.17c-1,.7-1.78,1.46-3.06,2.2a.75.75,0,1,0,.75,1.31A39.83,39.83,0,0,0,28.08,13a22.48,22.48,0,0,0,2.1-1.64,10.39,10.39,0,0,0,.88-.87A3.11,3.11,0,0,0,32,8.64,1.33,1.33,0,0,0,31.87,8.06Z"/><path class="cls-8" d="M29.16,22A13.65,13.65,0,0,1,5.37,23.3a12.57,12.57,0,0,1-.77-1.39c.42-.09.9-.2,1.43-.34l.2-.05.23-.06a71.38,71.38,0,0,0,10.51-4l1.64-.79-.79-1.56a.44.44,0,0,1,.47-.62l4,.74h.08l0,0h.05l0,0,0,0,0,0,.05.07a.16.16,0,0,1,0,.07Z"/><path class="cls-2" d="M16.91,21.76a24.73,24.73,0,0,1,4.36.38A26.09,26.09,0,0,0,22,16.65H18.59l0,.05L17,17.49c-1.66.76-3.31,1.46-4.88,2.08a25,25,0,0,0,.46,2.57A24.73,24.73,0,0,1,16.91,21.76Z"/><path class="cls-2" d="M20.92,23.4a23.82,23.82,0,0,0-8,0c.18.54.37,1.05.58,1.54.95,2.17,2.2,3.42,3.43,3.42s2.48-1.25,3.43-3.42A16.4,16.4,0,0,0,20.92,23.4Z"/><path class="cls-2" d="M21.53,25.46a9.91,9.91,0,0,1-1.68,2.71,12.5,12.5,0,0,0,5.86-3.26,15.44,15.44,0,0,0-3.51-1.25A18.15,18.15,0,0,1,21.53,25.46Z"/><path class="cls-2" d="M23.77,16.65h-.52a27.25,27.25,0,0,1-.71,5.75,17.31,17.31,0,0,1,3.87,1.4l.2.11a12.31,12.31,0,0,0,1.7-2.72Z"/><path class="cls-2" d="M11.62,23.66a15.61,15.61,0,0,0-3.51,1.25A12.55,12.55,0,0,0,14,28.17a9.91,9.91,0,0,1-1.68-2.71A18.15,18.15,0,0,1,11.62,23.66Z"/><path class="cls-2" d="M11.28,22.4c-.06-.27-.13-.55-.18-.84-.1-.49-.19-1-.26-1.52-1.57.58-3,1.06-4.38,1.42l-.73.19A11.61,11.61,0,0,0,6.54,23c.21.31.43.61.67.9l.21-.11a15.54,15.54,0,0,1,2.11-.89C10.09,22.72,10.68,22.55,11.28,22.4Z"/><path class="cls-2" d="M6,22.11l.6-.21L5.25,20.56A12.19,12.19,0,0,0,6,22.11Z"/><path class="cls-7" d="M22.32,15.26l-4-.74a.44.44,0,0,0-.47.62l.79,1.56L17,17.49a71.38,71.38,0,0,1-10.51,4c-.89.24-1.64.41-2.26.52A8.81,8.81,0,0,1,2,22.17a.3.3,0,0,1-.22-.47,15.49,15.49,0,0,1,2.07-1.78,17,17,0,0,1-.38-1.72A22.29,22.29,0,0,0,.94,20.27c-.32.36-1.28,1.44-.81,2.46s1.56,1,2.17,1h.23A13.11,13.11,0,0,0,5,23.38c.44-.09.91-.2,1.4-.32a68.71,68.71,0,0,0,11.24-4.2c.58-.26,1.14-.53,1.7-.8l.75,1.5a.43.43,0,0,0,.77,0l1.81-3.69A.43.43,0,0,0,22.32,15.26Z"/></g></g></svg>